<?xml version="1.0" encoding="utf-8"?>
<!-- Generator: Adobe Illustrator 26.0.3, SVG Export Plug-In . SVG Version: 6.00 Build 0)  -->
<svg version="1.1" id="Layer_1" xmlns="http://www.w3.org/2000/svg" xmlns:xlink="http://www.w3.org/1999/xlink" x="0px" y="0px"
	 viewBox="0 0 90 73" style="enable-background:new 0 0 90 73;" xml:space="preserve">
<style type="text/css">
	.st0{fill:#3A2316;}
	.st1{fill:#C2976C;}
</style>
<g>
	<path class="st0" d="M33.35,1.53c15.97,0.88,30.31,6,42.08,17.34c2.76,2.7,5,5.87,6.62,9.37c2.94,6.26,1.77,12-2.06,17.41
		c-3.38,4.79-7.84,8.49-12.73,11.71c-9.31,6.18-19.63,10.71-30.5,13.39c-9.6,2.38-17.11-1.1-21.52-9.95
		c-2.65-5.27-3.9-10.94-4.82-16.68C9.5,38.4,9.12,32.62,9.29,26.84c0.15-4.1,0.74-8.09,2.17-11.96c2.91-7.9,8.79-11.96,17-12.99
		C30,1.71,31.58,1.64,33.35,1.53z M32.98,14.88c-0.07,0.59-0.11,0.99-0.18,1.35c-1.94,9.12-3.87,18.24-5.81,27.37
		c-0.44,2.09-0.96,4.17-0.99,6.29c-0.11,4.28,2.43,6.51,6.69,6.04c0.23-0.05,0.44-0.15,0.62-0.29c0.18-0.15,0.32-0.33,0.41-0.55
		c0.96-4.02,1.8-8.09,2.65-12.15l5.74-27c0.15-0.77,0.52-1.1,1.36-1.1c2.06,0.07,4.12,0,6.14,0.04c0.85,0.04,1.36-0.11,1.47-1.1
		c0.1-0.74,0.27-1.46,0.51-2.16l-1.95-0.07H27.9c-3.16,0-3.16,0-3.86,2.93c-0.04,0.07,0.04,0.18,0.11,0.4H32.98z M52.81,17.88h-4.56
		c-1.25,0.04-2.8-0.37-3.61,0.22c-0.81,0.59-0.74,2.2-1.07,3.37c-0.04,0.22-0.11,0.48-0.15,0.7c-1.51,7.1-3.09,14.19-4.52,21.33
		c-0.63,3.18-1.36,6.4-1.4,9.62c-0.04,3.22,1.14,5.49,5.37,5.34c1.36-0.04,2.69,0,4.01,0h9.64c0.22-1.06,0.44-2.01,0.66-3.15
		l-1.51-0.07h-7.72c-2.28,0-2.54-0.29-2.43-2.63c-0.01-0.28,0.01-0.57,0.07-0.84c1.91-9.07,3.86-18.11,5.78-27.15
		C51.85,22.45,52.29,20.29,52.81,17.88z"/>
	<path class="st1" d="M32.98,14.88h-8.83c-0.07-0.22-0.15-0.33-0.11-0.4c0.7-2.93,0.7-2.93,3.86-2.93h21.74l1.95,0.07
		c-0.25,0.7-0.42,1.42-0.52,2.16c-0.11,0.99-0.63,1.13-1.47,1.1c-2.02-0.04-4.08,0.04-6.14-0.04c-0.81,0-1.21,0.33-1.36,1.1
		l-5.74,27c-0.85,4.06-1.69,8.12-2.65,12.15c-0.09,0.21-0.23,0.4-0.41,0.55c-0.18,0.15-0.39,0.25-0.62,0.29
		c-4.27,0.48-6.81-1.76-6.7-6.04c0.04-2.12,0.55-4.21,0.99-6.29c1.91-9.15,3.85-18.27,5.81-27.37
		C32.87,15.87,32.91,15.47,32.98,14.88z"/>
	<path class="st1" d="M52.81,17.88c-0.52,2.41-0.96,4.57-1.44,6.73c-1.91,9.04-3.86,18.07-5.78,27.15
		c-0.06,0.28-0.09,0.56-0.07,0.84c-0.11,2.34,0.15,2.63,2.43,2.63h7.72l1.51,0.07c-0.22,1.13-0.44,2.09-0.66,3.15h-9.64
		c-1.32,0-2.65-0.04-4.01,0c-4.23,0.15-5.44-2.09-5.37-5.34c0.07-3.26,0.77-6.44,1.4-9.62c1.43-7.13,3.02-14.23,4.52-21.33
		c0.04-0.22,0.11-0.48,0.15-0.7c0.33-1.17,0.29-2.78,1.07-3.37c0.77-0.59,2.35-0.18,3.61-0.22H52.81z"/>
</g>
</svg>
