<?xml version="1.0" encoding="utf-8"?>
<!-- Generator: Adobe Illustrator 26.0.3, SVG Export Plug-In . SVG Version: 6.00 Build 0)  -->
<svg version="1.1" id="Layer_1" xmlns="http://www.w3.org/2000/svg" xmlns:xlink="http://www.w3.org/1999/xlink" x="0px" y="0px"
	 viewBox="0 0 100 86" style="enable-background:new 0 0 100 86;" xml:space="preserve">
<style type="text/css">
	.st0{fill:#3A2316;}
	.st1{fill:#C2976C;}
	.st2{fill:#231F20;}
</style>
<g>
	<path class="st0" d="M43.05,0c13.05,0.72,24.78,4.91,34.41,14.18c2.26,2.2,4.09,4.8,5.41,7.66c2.41,5.12,1.44,9.81-1.68,14.24
		c-2.77,3.92-6.41,6.94-10.41,9.57c-7.61,5.06-16.05,8.76-24.93,10.95c-7.85,1.94-13.99-0.9-17.6-8.14
		c-2.17-4.31-3.19-8.94-3.94-13.64c-0.76-4.67-1.07-9.39-0.93-14.12c0.12-3.35,0.6-6.61,1.77-9.78c2.38-6.46,7.19-9.78,13.9-10.62
		C40.32,0.15,41.61,0.09,43.05,0z M42.75,10.92c-0.06,0.48-0.09,0.81-0.15,1.11c-1.58,7.46-3.17,14.92-4.75,22.37
		c-0.36,1.71-0.78,3.41-0.81,5.15c-0.09,3.5,1.99,5.32,5.47,4.94c0.19-0.04,0.36-0.12,0.51-0.24c0.15-0.12,0.26-0.27,0.34-0.45
		c0.78-3.29,1.47-6.61,2.17-9.93l4.69-22.08c0.12-0.63,0.42-0.9,1.11-0.9c1.68,0.06,3.37,0,5.02,0.03c0.69,0.03,1.11-0.09,1.2-0.9
		c0.08-0.6,0.22-1.19,0.42-1.76L56.38,8.2H38.6c-2.59,0-2.59,0-3.16,2.39c-0.03,0.06,0.03,0.15,0.09,0.33H42.75z M58.96,13.37h-3.73
		c-1.02,0.03-2.29-0.3-2.95,0.18c-0.66,0.48-0.6,1.79-0.87,2.75c-0.03,0.18-0.09,0.39-0.12,0.57c-1.23,5.8-2.53,11.61-3.7,17.44
		c-0.51,2.6-1.11,5.23-1.14,7.87c-0.03,2.63,0.93,4.49,4.39,4.37c1.11-0.03,2.2,0,3.28,0H62c0.18-0.87,0.36-1.65,0.54-2.57
		l-1.23-0.06h-6.32c-1.86,0-2.08-0.24-1.99-2.15c-0.01-0.23,0.01-0.46,0.06-0.69c1.56-7.42,3.16-14.81,4.72-22.2
		C58.18,17.11,58.54,15.35,58.96,13.37z"/>
	<path class="st1" d="M42.75,10.92h-7.22c-0.06-0.18-0.12-0.27-0.09-0.33C36.01,8.2,36.01,8.2,38.6,8.2h17.78l1.59,0.06
		c-0.2,0.57-0.34,1.16-0.42,1.76c-0.09,0.81-0.51,0.93-1.2,0.9c-1.65-0.03-3.34,0.03-5.02-0.03c-0.66,0-0.99,0.27-1.11,0.9
		l-4.69,22.08c-0.69,3.32-1.38,6.64-2.17,9.93c-0.07,0.17-0.19,0.33-0.34,0.45c-0.15,0.12-0.32,0.2-0.51,0.24
		c-3.49,0.39-5.56-1.44-5.47-4.94c0.03-1.73,0.45-3.44,0.81-5.15c1.56-7.48,3.15-14.94,4.75-22.37
		C42.66,11.73,42.69,11.4,42.75,10.92z"/>
	<path class="st1" d="M58.96,13.37c-0.42,1.97-0.78,3.74-1.17,5.5c-1.56,7.39-3.16,14.78-4.72,22.2c-0.05,0.23-0.07,0.46-0.06,0.69
		c-0.09,1.91,0.12,2.15,1.99,2.15h6.32l1.23,0.06c-0.18,0.93-0.36,1.71-0.54,2.57h-7.88c-1.08,0-2.17-0.03-3.28,0
		c-3.46,0.12-4.45-1.71-4.39-4.37c0.06-2.66,0.63-5.26,1.14-7.87c1.17-5.83,2.47-11.64,3.7-17.44c0.03-0.18,0.09-0.39,0.12-0.57
		c0.27-0.96,0.24-2.27,0.87-2.75c0.63-0.48,1.92-0.15,2.95-0.18H58.96z"/>
	<path class="st0" d="M2.93,62.76l-1.35,1.68h4.15v11.04l1.47-1.5v-9.63h4.39v-1.59H2.93z"/>
	<path class="st0" d="M13.37,62.97v12.5l1.65-1.67v-3.92h5.23V68.5h-5.26v-4.22h6.32v-1.32H13.37z"/>
	<path class="st0" d="M17.34,74.6l-1.17,1.17h5.14V74.6H17.34z"/>
	<path class="st0" d="M22.18,75.77l5.29-12.59h1.5l5.32,12.59h-1.65l-4.39-11.04l-4.21,11.04H22.18z"/>
	<path class="st0" d="M35.89,75.77l1.83-1.41v-4.52h1.47l4.99,5.68h2.14l-5.96-6.61l5.59-5.95h-1.92l-5.02,5.62h-1.35l-0.03-5.62
		h-1.74V75.77z"/>
	<path class="st0" d="M52.38,62.97v12.8h7.19l-1.53-1.53h-3.88V62.97H52.38z"/>
	<path class="st0" d="M59.99,75.77l5.26-12.8h1.68l5.29,12.8h-1.87l-4.21-11.13l-4.21,11.13H59.99z"/>
	<path class="st0" d="M73.79,75.77l1.59-1.74V65.9l7.52,9.87h1.47v-12.8l-1.74,1.74v8.2l-7.61-9.93h-1.23V75.77z"/>
	<path class="st0" d="M87.48,75.74l1.83-1.82v-9.66h3.64c0,0,3.73,0,3.97,4.46v1.2c0.01,0.76-0.18,1.51-0.54,2.18
		c-0.27,0.55-0.66,1.03-1.15,1.41c-0.48,0.38-1.05,0.64-1.65,0.77l-1.17,0.15l-1.44,1.32H94c0,0,3.19-0.6,4.27-3.74
		c0.21-0.62,0.31-1.26,0.3-1.91v-2.15c0,0-0.42-4.52-5.56-5h-5.53V75.74z"/>
	<path class="st2" d="M9.43,83.04c-0.01,0.16,0,0.32,0.03,0.48c0,0.3,0.15,0.36,0.51,0.33v0.39H9.55c-0.08,0.01-0.17,0-0.24-0.03
		c-0.08-0.03-0.15-0.07-0.21-0.13c-0.06-0.06-0.11-0.13-0.14-0.2c-0.03-0.08-0.04-0.16-0.04-0.24v-5.59h0.51V83.04z"/>
	<path class="st2" d="M14.33,84.23h-0.51v-0.87l-0.24,0.51c-0.17,0.16-0.37,0.28-0.58,0.37c-0.22,0.08-0.45,0.12-0.68,0.11
		c-0.9,0-1.44-0.54-1.53-1.23c-0.04-0.25-0.06-0.5-0.06-0.75v-2.6h0.54v2.48c0,0.22,0.01,0.44,0.03,0.66c0,0.14,0.04,0.28,0.1,0.41
		c0.06,0.13,0.15,0.25,0.25,0.34s0.23,0.17,0.37,0.21c0.14,0.05,0.28,0.06,0.42,0.05c0.75,0,1.38-0.54,1.38-1.94v-2.21h0.51V84.23z"
		/>
	<path class="st2" d="M18.75,84.23h-0.63l-1.26-1.91l-1.29,1.91h-0.6l1.59-2.24l-1.53-2.21h0.6l1.26,1.85l1.23-1.85h0.6l-1.56,2.21
		L18.75,84.23z"/>
	<path class="st2" d="M22.99,84.23h-0.51v-0.87l-0.24,0.51c-0.17,0.16-0.37,0.28-0.58,0.37c-0.22,0.08-0.45,0.12-0.68,0.11
		c-0.9,0-1.44-0.54-1.53-1.23c-0.04-0.25-0.06-0.5-0.06-0.75v-2.6h0.54v2.48c0,0.22,0.01,0.44,0.03,0.66c0,0.14,0.04,0.28,0.1,0.41
		c0.06,0.13,0.15,0.25,0.25,0.34c0.11,0.1,0.23,0.17,0.37,0.21c0.14,0.05,0.28,0.06,0.42,0.05c0.75,0,1.38-0.54,1.38-1.94v-2.21
		h0.51V84.23z"/>
	<path class="st2" d="M26.12,79.72v0.42c-0.78-0.06-1.35,0.42-1.35,1.59v2.51h-0.51v-4.46h0.51v0.81l0.33-0.57
		c0.1-0.1,0.22-0.19,0.36-0.24s0.28-0.09,0.42-0.09h0.24"/>
	<path class="st2" d="M28.5,84.44c-0.45,1.2-0.87,1.56-1.5,1.56h-0.36v-0.45h0.3c0.39,0,0.69-0.21,0.99-0.93l0.09-0.24l-1.77-4.61
		h0.6l1.44,4.07l1.44-4.07h0.57L28.5,84.44z"/>
	<path class="st2" d="M38.57,81.6v2.63h-0.51v-2.39c0-0.36-0.03-0.6-0.03-0.81c0-0.21-0.42-0.96-1.02-0.96
		c-0.6,0-1.11,0.51-1.11,1.82v2.33h-0.51v-2.39c0-0.36-0.03-0.6-0.03-0.81c0-0.21-0.42-0.96-1.02-0.96c-0.6,0-1.11,0.51-1.11,1.82
		v2.33h-0.51v-4.46h0.51v0.78l0.24-0.51c0.14-0.13,0.31-0.23,0.49-0.3c0.18-0.07,0.37-0.1,0.57-0.09c0.29-0.02,0.58,0.07,0.82,0.25
		c0.24,0.17,0.4,0.43,0.47,0.71l0.36-0.57c0.13-0.13,0.29-0.24,0.47-0.3c0.18-0.07,0.37-0.1,0.55-0.08c0.34-0.02,0.67,0.1,0.92,0.32
		c0.25,0.22,0.41,0.54,0.43,0.87C38.57,81.1,38.58,81.35,38.57,81.6z"/>
	<path class="st2" d="M42.39,83.43l-0.24,0.45c-0.16,0.16-0.35,0.29-0.57,0.37c-0.21,0.08-0.44,0.12-0.67,0.11
		c-0.84,0-1.41-0.45-1.41-1.26c0-0.81,0.96-1.5,2.59-1.5h0.27v-0.72c-0.06-0.51-0.36-0.81-0.99-0.81c-0.14-0.01-0.29,0-0.42,0.05
		c-0.14,0.05-0.26,0.12-0.37,0.21c-0.11,0.1-0.19,0.21-0.25,0.34c-0.06,0.13-0.09,0.27-0.1,0.41h-0.54
		c0.06-0.87,0.72-1.44,1.68-1.44s1.44,0.45,1.5,1.17c0.03,0.2,0.04,0.4,0.03,0.6v1.56c0.01,0.42,0.04,0.84,0.09,1.26h-0.54
		L42.39,83.43z M42.36,82.5v-0.51c-1.26-0.09-2.29,0.21-2.29,1.08c0,0.87,0.36,0.87,0.99,0.87C41.7,83.94,42.36,83.34,42.36,82.5z"
		/>
	<path class="st2" d="M47.86,84.23h-0.51V83.4l-0.3,0.48c-0.17,0.16-0.37,0.29-0.58,0.37c-0.22,0.08-0.45,0.12-0.68,0.11
		c-1.26,0-2.02-0.99-2.02-2.3c0-1.32,0.99-2.39,2.14-2.39c0.42-0.01,0.83,0.14,1.14,0.42l0.3,0.48v-2.51h0.51V84.23z M47.35,82.11
		v-0.33c0-1.29-0.78-1.7-1.44-1.7c-0.66,0-1.56,0.72-1.56,1.91c0,1.2,0.54,1.94,1.5,1.94S47.35,83.46,47.35,82.11z"/>
	<path class="st2" d="M52.71,82.17h-3.4c0.06,1.29,0.72,1.76,1.47,1.76c0.32,0,0.63-0.11,0.87-0.31c0.24-0.2,0.4-0.49,0.45-0.8h0.57
		c-0.09,0.45-0.33,0.85-0.69,1.13c-0.36,0.28-0.81,0.42-1.26,0.4c-1.11,0-1.99-0.78-1.99-2.36c0-1.59,0.9-2.33,2.08-2.33
		c1.17,0,1.92,0.99,1.92,2.21C52.74,81.97,52.73,82.07,52.71,82.17z M49.31,81.75h2.89c-0.06-1.14-0.63-1.67-1.38-1.67
		C50.06,80.08,49.4,80.65,49.31,81.75z"/>
	<path class="st2" d="M58,83.43l-0.21,0.45c-0.17,0.16-0.36,0.29-0.58,0.37c-0.22,0.08-0.45,0.12-0.68,0.11
		c-0.81,0-1.41-0.45-1.41-1.26c0-0.81,0.96-1.5,2.59-1.5H58v-0.18c0-0.18-0.01-0.36-0.03-0.54c-0.03-0.51-0.36-0.81-0.99-0.81
		c-0.14-0.01-0.29,0-0.42,0.05c-0.14,0.05-0.26,0.12-0.37,0.21c-0.11,0.1-0.19,0.21-0.25,0.34c-0.06,0.13-0.09,0.27-0.1,0.41h-0.54
		c0.06-0.87,0.72-1.44,1.68-1.44c0.96,0,1.44,0.45,1.5,1.17c0.03,0.2,0.04,0.4,0.03,0.6v1.56c0.01,0.42,0.04,0.84,0.09,1.26h-0.54
		L58,83.43z M58,82.5v-0.51c-1.26-0.09-2.32,0.21-2.32,1.08c0,0.87,0.36,0.87,1.02,0.87C57.37,83.94,58,83.34,58,82.5z"/>
	<path class="st2" d="M60.35,79.27v0.54h0.9v0.42h-0.9v4.01h-0.51v-4.01h-0.48v-0.42h0.48v-0.99c0-0.13,0.03-0.25,0.09-0.37
		c0.05-0.12,0.13-0.22,0.23-0.31c0.1-0.09,0.21-0.15,0.33-0.2c0.12-0.04,0.25-0.06,0.38-0.05h0.48v0.45
		c-0.6-0.12-0.93,0.06-0.96,0.48c-0.02,0.14-0.03,0.28-0.03,0.42"/>
	<path class="st2" d="M62.6,79.27v0.54h0.93v0.42H62.6v4.01h-0.51v-4.01h-0.48v-0.42h0.48v-0.99c0.01-0.13,0.04-0.26,0.1-0.37
		c0.06-0.12,0.14-0.22,0.23-0.31c0.1-0.09,0.21-0.15,0.34-0.19c0.12-0.04,0.25-0.06,0.38-0.05h0.45v0.45
		c-0.57-0.12-0.93,0.06-0.96,0.48c-0.02,0.14-0.03,0.28-0.03,0.42"/>
	<path class="st2" d="M68.26,81.99c0,1.32-0.75,2.36-2.17,2.36s-2.17-1.05-2.17-2.36c0-1.32,0.75-2.33,2.17-2.33
		S68.26,80.71,68.26,81.99z M67.69,81.99c0-1.2-0.66-1.91-1.59-1.91c-0.93,0-1.59,0.72-1.59,1.91c0,1.2,0.66,1.94,1.59,1.94
		C67.02,83.94,67.69,83.22,67.69,81.99z"/>
	<path class="st2" d="M71.03,79.72v0.42c-0.78-0.06-1.35,0.42-1.35,1.59v2.51h-0.54v-4.46h0.54v0.81L70,80.02
		c0.1-0.1,0.21-0.19,0.34-0.24c0.13-0.06,0.27-0.09,0.41-0.09h0.27"/>
	<path class="st2" d="M75.36,84.23h-0.54V83.4l-0.3,0.48c-0.16,0.16-0.36,0.29-0.58,0.37c-0.22,0.08-0.45,0.12-0.68,0.1
		c-1.23,0-1.98-0.99-1.98-2.3c0-1.32,0.99-2.39,2.14-2.39c0.42-0.01,0.83,0.14,1.14,0.42l0.27,0.48v-2.51h0.54V84.23z M74.81,82.11
		v-0.33c0-1.29-0.75-1.7-1.41-1.7c-0.66,0-1.56,0.72-1.56,1.91c0,1.2,0.51,1.94,1.5,1.94S74.81,83.46,74.81,82.11z"/>
	<path class="st2" d="M79.21,83.43l-0.24,0.45c-0.16,0.16-0.35,0.29-0.56,0.37c-0.21,0.08-0.44,0.12-0.67,0.11
		c-0.81,0-1.41-0.45-1.41-1.26c0-0.81,0.96-1.5,2.59-1.5h0.27v-0.72c-0.03-0.51-0.36-0.81-0.99-0.81c-0.14-0.01-0.29,0-0.42,0.05
		c-0.14,0.05-0.26,0.12-0.37,0.21c-0.11,0.1-0.19,0.21-0.25,0.34c-0.06,0.13-0.09,0.27-0.1,0.41H76.5c0.06-0.87,0.72-1.44,1.68-1.44
		c0.96,0,1.44,0.45,1.5,1.17c0.03,0.2,0.04,0.4,0.03,0.6v1.56c0.01,0.42,0.04,0.84,0.09,1.26h-0.54L79.21,83.43z M79.18,82.5v-0.51
		c-1.23-0.09-2.29,0.21-2.29,1.08c0,0.87,0.36,0.87,0.99,0.87C78.51,83.94,79.18,83.34,79.18,82.5z"/>
	<path class="st2" d="M85.04,81.96c0,1.59-0.99,2.39-2.14,2.39c-0.42,0.01-0.83-0.14-1.14-0.42l-0.27-0.48v0.78h-0.54v-6.19h0.54
		v2.57l0.3-0.51c0.17-0.15,0.37-0.27,0.59-0.35c0.22-0.08,0.45-0.11,0.68-0.1C84.29,79.66,85.04,80.62,85.04,81.96z M84.47,82.02
		c0-1.08-0.51-1.94-1.5-1.94c-0.99,0-1.47,0.48-1.47,1.82v0.33c0,1.26,0.75,1.7,1.41,1.7S84.47,83.22,84.47,82.02z"/>
	<path class="st2" d="M86.39,83.04c-0.01,0.16,0,0.32,0.03,0.48c0,0.3,0.12,0.36,0.51,0.33v0.39h-0.42c-0.08,0.01-0.17,0-0.24-0.03
		c-0.08-0.03-0.15-0.07-0.21-0.13c-0.06-0.06-0.11-0.13-0.14-0.2c-0.03-0.08-0.04-0.16-0.04-0.24v-5.59h0.51V83.04z"/>
	<path class="st2" d="M91.36,82.17h-3.4c0.06,1.29,0.75,1.76,1.47,1.76c0.32,0,0.63-0.11,0.87-0.31s0.4-0.49,0.45-0.8h0.57
		c-0.09,0.44-0.33,0.84-0.68,1.12c-0.35,0.28-0.79,0.43-1.25,0.41c-1.11,0-1.98-0.78-1.98-2.36c0-1.59,0.87-2.33,2.05-2.33
		c1.17,0,1.92,0.99,1.92,2.21C91.39,81.97,91.38,82.07,91.36,82.17z M87.96,81.75h2.89c-0.06-1.14-0.63-1.67-1.38-1.67
		C88.71,80.08,88.05,80.65,87.96,81.75z"/>
</g>
</svg>
